<?xml version="1.0" encoding="utf-8"?>
<!-- Generator: Adobe Illustrator 24.1.1, SVG Export Plug-In . SVG Version: 6.00 Build 0)  -->
<svg version="1.1" id="圖層_1" xmlns="http://www.w3.org/2000/svg" xmlns:xlink="http://www.w3.org/1999/xlink" x="0px" y="0px"
	 viewBox="0 0 183.4 95.3" style="enable-background:new 0 0 183.4 95.3;" xml:space="preserve">
<style type="text/css">
	.st0{fill:#C24520;}
</style>
<path class="st0" d="M120,47.7c0-15.7-12.7-28.3-28.3-28.3S63.4,32,63.4,47.7c0,13.7,9.8,25.2,22.8,27.8c0-3.1,0-13.5,0-22h-4.1
	v-6.4h4.1c0-2.5,0-4.3,0-4.8c0-2.4-0.2-3.4,0.7-5.4c0.9-1.9,3.4-4.3,8-4.2c4.4,0.1,6.4,0.5,6.4,0.5l-1,6.8c0,0-2.9-0.8-4.3-0.5
	c-1.4,0.3-2.2,1.2-2.2,3.6c0,0.5,0,1.9,0,4h6.4l-0.6,6.4h-5.7c0,8.7,0,20.1,0,22.4C108.5,74.8,120,62.6,120,47.7z"/>
</svg>
