<?xml version="1.0" encoding="utf-8"?>
<!-- Generator: Adobe Illustrator 24.1.1, SVG Export Plug-In . SVG Version: 6.00 Build 0)  -->
<svg version="1.1" id="圖層_1" xmlns="http://www.w3.org/2000/svg" xmlns:xlink="http://www.w3.org/1999/xlink" x="0px" y="0px"
	 viewBox="0 0 183.4 95.3" style="enable-background:new 0 0 183.4 95.3;" xml:space="preserve">
<style type="text/css">
	.st0{fill:#C24520;}
	.st1{fill:#FFFFFF;}
</style>
<g>
	<g>
		<path class="st0" d="M115.1,40.4L92.6,23.8c-0.5-0.4-1.2-0.4-1.7,0L68.3,40.4c-0.7,0.4-0.9,1.4-0.3,2.2c0.4,0.7,1.4,0.9,2.2,0.3
			l0.6-0.4v25c0,2.3,1.9,4.3,4.3,4.3h33.5c2.3,0,4.3-1.9,4.3-4.3V42.3l0.6,0.4c0.3,0.2,0.6,0.3,0.9,0.3c0.4,0,1-0.2,1.2-0.6
			C116,41.8,115.8,40.8,115.1,40.4z"/>
	</g>
	<g>
		<g>
			<path class="st1" d="M83.5,44.9c0.2-0.4,0.4-1.2,0.7-1.9h-1.4v5.3c0,0.4-0.1,0.8-0.4,1c-0.3,0.2-0.9,0.2-1.7,0.2
				c-0.1-0.3-0.2-0.7-0.3-1c0.6,0,1.2,0,1.4,0s0.3-0.1,0.3-0.2V43h-2.2v-0.9H83c-0.6-0.6-1.6-1.4-2.6-1.9l0.4-0.6
				c0.4,0.3,0.9,0.4,1.3,0.8c0.4-0.4,0.9-1,1.2-1.6H80v-0.9h4l0.2-0.1l0.6,0.4c-0.5,0.9-1.2,1.8-1.9,2.6c0.4,0.3,0.8,0.6,1,0.9
				l-0.3,0.3h1l0.2-0.1l0.6,0.2c-0.3,1-0.8,2.2-1,2.9L83.5,44.9z M87.5,47.6c-0.7,0.7-1.9,1.4-2.9,1.7c-0.2-0.2-0.4-0.4-0.6-0.6
				c1-0.4,2.2-1,2.7-1.6L87.5,47.6z M87.4,39.9c0.1-0.4,0.2-0.9,0.3-1.3H85v-0.9h6.4v0.9h-2.8c-0.1,0.4-0.3,0.9-0.3,1.3h2.6v6.8
				h-5.5v-6.8H87.4z M90,40.7h-3.7V42H90V40.7z M90,42.7h-3.7V44H90V42.7z M90,44.7h-3.7V46H90V44.7z M89.4,47.1
				c0.8,0.4,1.7,1.2,2.2,1.6l-0.7,0.5c-0.4-0.4-1.4-1.2-2.2-1.7L89.4,47.1z"/>
			<path class="st1" d="M94.2,45.8c-0.2,1.1-0.5,2.3-0.9,3.2c-0.2-0.1-0.6-0.3-0.8-0.3c0.3-0.8,0.6-2,0.9-3L94.2,45.8z M97,45
				c-0.1-0.2-0.1-0.4-0.2-0.8c-3.2,0.4-3.7,0.6-4,0.8c-0.1-0.2-0.2-0.7-0.3-1c0.3-0.1,0.6-0.3,1-0.9c0.3-0.3,0.7-0.9,1.3-1.6
				c-1.6,0.2-1.9,0.3-2.1,0.3c-0.1-0.2-0.2-0.6-0.3-0.9c0.3-0.1,0.4-0.3,0.8-0.8c0.3-0.4,1.4-1.9,1.9-3.4l0.9,0.4
				c-0.6,1.2-1.4,2.5-2.3,3.5l1.6-0.2c0.3-0.4,0.7-1,1-1.6l0.8,0.5c-1,1.5-2,2.9-3.1,4.1l2.3-0.4c-0.2-0.4-0.3-0.9-0.4-1.2l0.8-0.2
				c0.3,0.9,0.8,2,0.9,2.7L97,45z M95.6,45.6c0.2,1,0.3,2.2,0.4,2.9l-0.8,0.2c-0.1-0.8-0.2-2-0.4-2.9L95.6,45.6z M97.1,45.3
				c0.3,0.8,0.7,1.8,0.9,2.5l-0.8,0.3c-0.2-0.7-0.4-1.7-0.8-2.6L97.1,45.3z M103.6,40.2c-0.2,5.9-0.3,7.9-0.8,8.6
				c-0.3,0.4-0.5,0.4-1,0.5c-0.4,0.1-1.2,0.1-1.9,0c0-0.3-0.2-0.7-0.3-1c0.8,0.1,1.5,0.1,1.8,0.1c0.3,0,0.4-0.1,0.4-0.2
				c0.4-0.4,0.5-2.4,0.7-7.5H99c-0.3,0.8-0.7,1.4-1,1.9c-0.2-0.2-0.6-0.4-0.8-0.5c0.9-1.1,1.6-2.9,1.9-4.7l0.9,0.2
				c-0.2,0.8-0.4,1.6-0.7,2.3h4.2L103.6,40.2L103.6,40.2z M100.9,45.7c-0.4-0.8-1.4-2-2.2-2.9l0.6-0.4c0.9,0.9,1.8,2,2.2,2.9
				L100.9,45.7z"/>
			<path class="st1" d="M84.6,65.2c-1,0.6-2.6,1-3.8,1.4c-0.2-0.2-0.4-0.6-0.7-0.8c1.3-0.2,2.9-0.5,3.6-1L84.6,65.2z M81.3,58.2
				h-0.9v-2.3h2.1c-0.2-0.3-0.5-0.8-0.9-1.1l0.9-0.3c0.4,0.4,0.8,0.9,1,1.3l-0.3,0.2h1.9v-1.6h1v1.6H88l-0.2-0.1
				c0.3-0.4,0.8-1,1-1.4l1,0.3c-0.3,0.4-0.7,0.9-1,1.2h2.2v2.3h-1v-1.6h-8.7V58.2z M81.7,60.1h8v4.6h-8V60.1z M89,57.2v2.2h-6.6
				v-2.2H89z M82.6,61.4h6.3v-0.8h-6.3V61.4z M82.6,62.8h6.3V62h-6.3V62.8z M82.6,64.1h6.3v-0.8h-6.3V64.1z M88.2,57.9h-4.9v1h4.9
				V57.9z M87.3,64.8c1.4,0.3,2.9,0.8,3.8,1.2l-1,0.6c-0.8-0.3-2.2-0.9-3.6-1.2L87.3,64.8z"/>
			<path class="st1" d="M94.7,58.7c0,2.3-0.2,5.6-1.4,7.7c-0.2-0.2-0.6-0.4-0.9-0.4c1.2-2.2,1.4-5.1,1.4-7.3V55h9.3v2.9h-8.4
				L94.7,58.7L94.7,58.7z M103.9,65.4v0.8h-9.5v-0.8h4.2V64h-3.2v-0.8h3.2v-1.1c-2.4,0.2-2.9,0.3-3,0.3c-0.1-0.2-0.2-0.6-0.3-0.9
				c0.2-0.1,0.4-0.2,0.7-0.4c0.2-0.2,0.8-0.6,1.2-1.2h-2.4v-0.7h8.7v0.8h-2.7c0.9,0.6,2,1.6,2.6,2.3l-0.8,0.4
				c-0.2-0.3-0.4-0.5-0.8-0.9L99.4,62v1.2h3.4V64h-3.4v1.4C99.5,65.4,103.9,65.4,103.9,65.4z M94.7,55.9v1.3h7.4v-1.3H94.7z
				 M98.4,59.8c-0.4,0.4-1,1-1.5,1.4l4.2-0.3c-0.3-0.3-0.6-0.4-1-0.8l0.6-0.4L98.4,59.8L98.4,59.8z"/>
		</g>
	</g>
</g>
</svg>
