<?xml version="1.0" encoding="utf-8"?>
<!-- Generator: Adobe Illustrator 24.1.1, SVG Export Plug-In . SVG Version: 6.00 Build 0)  -->
<svg version="1.1" id="圖層_1" xmlns="http://www.w3.org/2000/svg" xmlns:xlink="http://www.w3.org/1999/xlink" x="0px" y="0px"
	 viewBox="0 0 183.4 95.3" style="enable-background:new 0 0 183.4 95.3;" xml:space="preserve">
<style type="text/css">
	.st0{fill:#C24520;}
</style>
<g>
	<g>
		<path class="st0" d="M107.7,66.3l-5-3.4l-4.5-2.9c-0.9-0.5-2-0.4-2.6,0.4L92.8,64c-0.6,0.8-1.6,1-2.5,0.5c-1.9-1.1-4.1-2-8.9-6.9
			c-4.9-4.9-5.9-7-6.9-8.9c-0.5-0.9-0.3-1.9,0.5-2.5l3.6-2.8c0.8-0.6,1-1.8,0.4-2.6L76,36.5l-3.4-5.1c-0.6-0.9-1.8-1.2-2.6-0.6
			l-4,2.4c-1.1,0.6-1.8,1.6-2.2,2.8c-1.1,3.9-1.3,12.6,12.6,26.5C90.3,76.3,99,76.1,102.9,75.1c1.2-0.4,2.2-1.1,2.8-2.2l2.4-4
			C108.9,68.1,108.6,67,107.7,66.3z"/>
		<path class="st0" d="M90,23c14.9,0,26.9,12.1,26.9,26.9c0,0.9,0.7,1.6,1.6,1.6c0.9,0,1.6-0.7,1.6-1.6c0-16.6-13.5-30-30-30
			c-0.9,0-1.6,0.7-1.6,1.6C88.4,22.3,89.1,23,90,23z"/>
		<path class="st0" d="M90,32.5c9.6,0,17.4,7.8,17.5,17.5c0,0.9,0.7,1.6,1.6,1.6s1.6-0.7,1.6-1.6c0-11.3-9.2-20.5-20.6-20.6
			c-0.9,0-1.6,0.7-1.6,1.6C88.4,31.7,89.1,32.5,90,32.5z"/>
		<path class="st0" d="M90,42c4.4,0,7.9,3.6,7.9,7.9c0,0.9,0.7,1.6,1.6,1.6c0.9,0,1.6-0.7,1.6-1.6c0-6.1-4.9-11.1-11.1-11.1
			c-0.9,0-1.6,0.7-1.6,1.6C88.4,41.3,89.1,42,90,42z"/>
	</g>
</g>
</svg>
