<?xml version="1.0" encoding="utf-8"?>
<!-- Generator: Adobe Illustrator 24.1.1, SVG Export Plug-In . SVG Version: 6.00 Build 0)  -->
<svg version="1.1" id="圖層_1" xmlns="http://www.w3.org/2000/svg" xmlns:xlink="http://www.w3.org/1999/xlink" x="0px" y="0px"
	 viewBox="0 0 255.1 150" style="enable-background:new 0 0 255.1 150;" xml:space="preserve">
<style type="text/css">
	.st0{fill:#FFFFFF;}
</style>
<g>
	<g>
		<g>
			<path class="st0" d="M96.5,143.5c0,1.9-0.4,3-1.5,3.6c-1.2,0.7-3,0.8-5.8,0.8c-0.1-0.9-0.6-2.7-1.1-3.6c1.9,0.1,3.6,0,4.2,0
				c0.6,0,0.8-0.2,0.8-0.8v-12.3c-1.3,1-2.5,2.1-3.8,3.1l-1.3-2.9c-0.4,5.8-1.3,12.2-3.5,16.9c-0.6-0.8-2.2-2.1-3-2.5
				c2.8-6.5,3.1-15.7,3.1-22.5v-16.6h12.1V143.5z M88,123.5c0,2.2,0,4.6-0.2,7.1c1.4-0.8,3.2-1.9,5.1-3.2v-5.5l-1.7,1.2
				c-0.7-1.1-2-2.8-3.3-4.3V123.5z M88,110.8v6.7l1.7-1.1c1.1,1.1,2.3,2.4,3.2,3.6v-9.2H88z M107,135.4c-0.3,1-0.6,2.1-1,3.1
				c1.9,1.1,3.9,2.6,5,3.8l-2.3,2.9c-0.9-1-2.5-2.3-4.1-3.5c-1.4,2.7-3.1,5.1-5.1,6.8c-0.7-0.7-2.1-1.9-3-2.5
				c3.3-2.6,5.6-6.7,6.7-11.3L107,135.4z M104.4,116.9c-1.3,0.9-2.6,1.8-4,2.7c-0.6-0.8-2-2.2-2.8-2.8c5.4-3.1,10.1-7.7,12.7-12.2
				l4.1,1.3c-0.3,0.6-0.7,1.1-1.1,1.6c3,3,8.1,6,12.4,7.5c-0.7,1-1.4,2.8-1.8,3.9c-1.7-0.8-3.5-1.8-5.3-2.9v3h-14.1V116.9z
				 M99.2,122.2h11.4v11.3H99.2V122.2z M102.4,130.2h5v-4.8h-5V130.2z M117.8,115.6c-2.4-1.6-4.8-3.4-6.7-5.2
				c-1.6,1.9-3.3,3.7-5.2,5.2H117.8z M120.3,135c-0.3,1.4-0.7,2.7-1.1,3.9c2.6,1.9,5.5,4.3,7,5.9l-2.8,2.8c-1.2-1.4-3.5-3.4-5.7-5.2
				c-1.3,2.4-3,4.4-5,5.9c-0.6-0.8-2.1-2.2-2.9-2.8c3.5-2.4,5.7-6.3,6.5-11.1L120.3,135z M112.4,122.2h11.6v11.3h-11.6V122.2z
				 M115.6,130.2h5.1v-4.8h-5.1V130.2z"/>
			<path class="st0" d="M175.7,128.6v3.1h-42.5v-3.1H152v-2.3h-15.5v-2.8H152v-2.2h-14.3v-2.8H152v-2.3h-18.7v-3.1H152v-2.3h-13.8
				v-2.7H152V105h4.5v3.2H170v4.9h5.7v3.1H170v5.1h-13.5v2.2h15.8v2.8h-15.8v2.3H175.7z M139.3,133.7h31v14.7h-4.5V147h-22.1v1.4
				h-4.4V133.7z M143.6,136.5v2.4h22.1v-2.4H143.6z M165.8,144.1v-2.5h-22.1v2.5H165.8z M156.5,113.1h9.1v-2.3h-9.1V113.1z
				 M156.5,118.6h9.1v-2.3h-9.1V118.6z"/>
		</g>
	</g>
	<path class="st0" d="M137.1,81.9c0-0.2,0-0.4,0-0.6c0-5.8,0-11.6,0-17.4c0-3.1,0-6.2,0-9.3c0-0.6,0-0.6,0.6-0.6c2.7,0,5.4,0,8.1,0
		c0.6,0,0.6,0,0.7-0.6c0.2-1.3,0.4-2.6,0.6-3.9c0.3-2,0.6-4.1,0.9-6.1c0-0.3,0-0.5,0.1-0.8c-0.2,0-0.4,0-0.5,0c-3.2,0-6.5,0-9.7,0
		c-0.8,0-0.7,0.1-0.7-0.7c0-2.3,0-4.5,0-6.8c0-1.2,0.2-2.3,0.8-3.3c0.5-0.9,1.2-1.6,2.2-2.1c1.2-0.6,2.5-0.8,3.8-0.8
		c1.3,0,2.7,0,4,0c0.1,0,0.2,0,0.3,0c0.4,0,0.4,0,0.4-0.5c0,0,0-0.1,0-0.1c0-2.9,0-5.8,0-8.7c0-0.1,0-0.1,0-0.2
		c0-0.3-0.1-0.4-0.3-0.4c-0.6-0.1-1.1-0.2-1.7-0.2c-1.2-0.2-2.4-0.3-3.7-0.3c-1,0-2-0.1-3.1-0.1c-1,0-1.9,0.1-2.9,0.2
		c-1.4,0.1-2.7,0.5-4,1.1c-0.9,0.4-1.8,0.9-2.6,1.5c-0.6,0.4-1.1,0.9-1.6,1.3c-0.3,0.3-0.6,0.7-0.9,1c-0.7,1-1.3,2-1.8,3.1
		c-0.5,1.2-0.9,2.5-1.1,3.8c-0.1,0.5-0.1,1-0.2,1.5c-0.2,3.3,0,6.7-0.1,10c0,0.7,0,0.7-0.7,0.7c-2.9,0-5.9,0-8.8,0
		c-0.6,0-0.6,0-0.6,0.6c0,3.4,0,6.8,0,10.2c0,0,0,0.1,0,0.1c0,0.5,0,0.5,0.5,0.5c3,0,6,0,9,0c0.7,0,0.7,0,0.7,0.7
		c0,8.9,0,17.7,0,26.6c0,0.1,0,0.3,0,0.4c0,0.2-0.1,0.3-0.3,0.2c-0.3,0-0.6-0.1-0.9-0.2c-0.9-0.2-1.8-0.4-2.7-0.6
		c-1.9-0.4-3.7-1.1-5.5-1.8c-1.2-0.5-2.3-1-3.4-1.6c-1.1-0.6-2.2-1.3-3.2-2c-0.8-0.5-1.6-1.1-2.3-1.7c-0.8-0.6-1.5-1.3-2.2-1.9
		c-0.8-0.7-1.5-1.4-2.2-2.2c-0.5-0.5-1-1.1-1.5-1.7c-0.5-0.6-1-1.1-1.4-1.7c-0.7-1-1.4-1.9-2-2.9c-1.2-1.8-2.1-3.7-2.9-5.7
		c-0.8-1.9-1.5-3.9-2-6c-0.4-1.9-0.8-3.9-1-5.8c-0.1-1.6-0.2-3.2-0.1-4.8c0.1-2.4,0.4-4.8,0.9-7.2c0.5-2.1,1.1-4.2,1.9-6.3
		c0.5-1.4,1.2-2.7,1.9-4c0.4-0.7,0.8-1.5,1.3-2.2c0.7-1.1,1.5-2.2,2.3-3.3c0.8-1.2,1.8-2.2,2.7-3.2c0.8-0.8,1.6-1.6,2.5-2.4
		c0.6-0.5,1.2-1,1.8-1.5c0.7-0.5,1.4-1.1,2.1-1.5c1.2-0.8,2.3-1.5,3.5-2.2c1-0.5,2-1,3-1.4c1.1-0.5,2.2-0.9,3.4-1.3
		c1.4-0.4,2.8-0.9,4.2-1.2c1.5-0.3,3-0.6,4.5-0.7c1.7-0.2,3.4-0.3,5.1-0.2c2,0.1,3.9,0.3,5.9,0.6c1.7,0.3,3.3,0.7,4.9,1.2
		c0.4,0.1,0.8,0.3,1.2,0.4c1.1,0.4,2.2,0.8,3.2,1.3c1.4,0.6,2.7,1.3,4,2.1c0.8,0.5,1.6,1,2.3,1.5c0.6,0.4,1.1,0.8,1.7,1.2
		c0.5,0.4,1,0.9,1.6,1.3c1,0.9,2,1.8,2.9,2.8c0.6,0.7,1.2,1.4,1.8,2.1c1.1,1.3,2.2,2.8,3.1,4.3c0.4,0.7,0.8,1.3,1.2,2
		c0.2,0.3,0.3,0.6,0.5,0.9c0.4,0.9,0.9,1.8,1.3,2.7c0.7,1.8,1.4,3.6,1.9,5.5c0.4,1.7,0.8,3.5,1,5.2c0.1,0.9,0.1,1.9,0.2,2.8
		c0,1,0.1,2,0.1,3c0,1-0.1,2-0.2,3.1c-0.1,1.4-0.3,2.8-0.6,4.2c-0.3,1.4-0.7,2.9-1.1,4.3c-0.3,1-0.7,2-1.1,3
		c-0.2,0.6-0.5,1.1-0.7,1.6c-0.3,0.7-0.7,1.4-1,2c-0.5,0.9-1.1,1.8-1.6,2.7c-0.5,0.7-0.9,1.4-1.4,2.1c-0.7,1-1.5,1.9-2.4,2.8
		c-0.4,0.4-0.8,0.9-1.2,1.3c-0.4,0.4-0.8,0.7-1.2,1.1c-0.6,0.6-1.3,1.2-1.9,1.7c-1,0.8-2,1.5-3,2.2c-0.8,0.5-1.5,1-2.3,1.5
		c-0.8,0.4-1.6,0.8-2.3,1.2c-0.2,0.1-0.5,0.2-0.7,0.3c-1.1,0.5-2.3,1-3.4,1.4c-1,0.4-1.9,0.7-2.9,0.9c-1.3,0.3-2.7,0.6-4,0.9
		C137.4,81.9,137.3,81.9,137.1,81.9z"/>
</g>
</svg>
