<?xml version="1.0" encoding="utf-8"?>
<!-- Generator: Adobe Illustrator 24.1.1, SVG Export Plug-In . SVG Version: 6.00 Build 0)  -->
<svg version="1.1" id="圖層_1" xmlns="http://www.w3.org/2000/svg" xmlns:xlink="http://www.w3.org/1999/xlink" x="0px" y="0px"
	 viewBox="0 0 255.1 150" style="enable-background:new 0 0 255.1 150;" xml:space="preserve">
<style type="text/css">
	.st0{fill:#FFFFFF;}
</style>
<g>
	<g>
		<g>
			<path class="st0" d="M95.4,128.4c0.7-1.6,1.5-4,2.2-6.4h-4.1v17.3c0,2.2-0.4,3.4-2,4.1c-1.5,0.7-3.7,0.7-7,0.7
				c-0.2-1.2-0.8-3-1.3-4.1c2.3,0,4.5,0,5.1,0c0.6,0,0.8-0.2,0.8-0.7V122h-7.5v-3.9h11.4c-2.5-2.1-6.1-4.4-9.2-5.9l2.3-2.9
				c1.5,0.7,3.1,1.6,4.6,2.5c1.4-1.4,2.9-3.1,4-4.7H82.8v-3.8h14.9l0.8-0.2l2.7,1.9c-1.9,3.1-4.6,6.4-7.2,9c1.3,0.9,2.5,1.8,3.4,2.7
				l-1.2,1.6h2.9l0.6-0.1l2.8,0.7c-1.2,3.7-2.5,7.9-3.7,10.6L95.4,128.4z M111.6,138.1c-2.6,2.4-7.1,5-10.9,6.4
				c-0.7-0.8-2.1-2.2-3-2.9c3.7-1.3,8-3.8,10-5.8L111.6,138.1z M110.2,110.8c0.2-1.3,0.5-2.6,0.7-3.9h-9.6v-3.7h24.2v3.7h-9.6
				c-0.4,1.4-0.9,2.7-1.2,3.9h9.3v24.4h-20.9v-24.4H110.2z M119.7,114.1h-12.5v3.9h12.5V114.1z M119.7,121h-12.5v3.9h12.5V121z
				 M119.7,128h-12.5v3.9h12.5V128z M118.3,136c2.8,1.6,6.4,4.2,8.3,5.9l-3.5,2.5c-1.7-1.7-5.3-4.4-8.2-6.2L118.3,136z"/>
			<path class="st0" d="M139.7,132.2c-0.7,4-2,8.5-3.2,11.2c-0.9-0.4-2.7-1-3.8-1.3c1.3-2.8,2.4-7,3.1-10.7L139.7,132.2z
				 M149.4,129.4c-0.1-0.7-0.3-1.6-0.6-2.5c-11.7,1.8-13.4,2.3-14.5,2.8c-0.2-0.8-0.9-2.9-1.4-4c1.2-0.2,2.3-1.3,4-3
				c0.8-0.8,2.4-2.5,4.3-4.8c-5.2,0.6-6.4,0.8-7,1.2c-0.2-0.8-0.9-2.8-1.4-3.9c1-0.1,1.9-1.1,3-2.4c1.2-1.4,4.8-6.5,7-11.6l4.1,1.7
				c-2.3,4.1-5.1,8.3-7.9,11.7l5.1-0.4c1.3-1.8,2.6-3.8,3.8-5.8l3.8,2.4c-3.3,4.8-7.2,9.7-11.2,13.7l7.4-1c-0.4-1.4-1-2.8-1.4-4
				l3.6-0.9c1.3,3.1,2.7,7.2,3.2,9.7L149.4,129.4z M145.1,131.1c0.7,3.3,1.4,7.5,1.6,10.3l-3.7,1c-0.1-2.9-0.8-7.1-1.3-10.4
				L145.1,131.1z M150.6,130c1.2,2.8,2.5,6.3,3.1,8.7l-3.5,1.3c-0.5-2.4-1.8-6.1-2.9-8.9L150.6,130z M175.3,109.7c0,0,0,1.6,0,2.2
				c-0.6,20.5-1.2,27.6-3,29.8c-1.2,1.6-2.3,2-4.1,2.3c-1.7,0.2-4.5,0.1-7.2,0c-0.1-1.2-0.7-3.1-1.4-4.3c2.9,0.2,5.6,0.2,6.8,0.2
				c0.9,0,1.4-0.1,1.9-0.8c1.3-1.5,2-8.3,2.5-25.3H158c-1.2,2.5-2.4,4.7-3.7,6.5c-0.9-0.6-2.8-1.9-3.9-2.5c3.4-4,5.9-10.3,7.3-16.6
				l4.4,0.8c-0.7,2.6-1.5,5.2-2.3,7.6H175.3z M163.9,132c-1.5-2.8-5-7.2-8.2-10.2l3.1-2.2c3.2,2.9,6.9,7,8.4,9.9L163.9,132z"/>
		</g>
	</g>
	<g id="XMLID_70493_">
		<path class="st0" d="M160.8,6.5h-59.4c-3.7,0-6.8,3-6.8,6.8v38.1c0,3.7,3,6.8,6.8,6.8h39.3c0.4,0,0.8,0.1,1.2,0.4L159.1,70V59.9
			c0-0.9,0.6-1.8,1.5-2c3.3-1,7.1-4,7.1-6.5V13.3C167.6,9.6,164.6,6.5,160.8,6.5z M156.1,47.5H106c-2.2,0-4-1.8-4-4c0-2.2,1.8-4,4-4
			h50.1c2.2,0,4,1.8,4,4C160.1,45.7,158.3,47.5,156.1,47.5z M156.1,36.2H106c-2.2,0-4-1.8-4-4c0-2.2,1.8-4,4-4h50.1c2.2,0,4,1.8,4,4
			C160.1,34.4,158.3,36.2,156.1,36.2z M156.1,24.4H106c-2.2,0-4-1.8-4-4c0-2.2,1.8-4,4-4h50.1c2.2,0,4,1.8,4,4
			C160.1,22.7,158.3,24.4,156.1,24.4z"/>
	</g>
</g>
</svg>
