<?xml version="1.0" encoding="utf-8"?>
<!-- Generator: Adobe Illustrator 24.1.1, SVG Export Plug-In . SVG Version: 6.00 Build 0)  -->
<svg version="1.1" id="圖層_1" xmlns="http://www.w3.org/2000/svg" xmlns:xlink="http://www.w3.org/1999/xlink" x="0px" y="0px"
	 viewBox="0 0 255.1 150" style="enable-background:new 0 0 255.1 150;" xml:space="preserve">
<style type="text/css">
	.st0{fill:#FFFFFF;}
</style>
<g>
	<g>
		<g>
			<path class="st0" d="M1106.3,884.7h10.1v3.4h-10.1v4.7c0,2.1-0.4,3.1-2.2,3.8c-1.6,0.6-4.1,0.6-7.8,0.6c-0.2-1.1-0.9-2.7-1.5-3.8
				c2.7,0.1,5.4,0.1,6.2,0c0.7,0,1-0.2,1-0.8v-4.6h-15.7c2.2,1.6,4.6,3.7,5.8,5.2l-3.3,2.7c-1.2-1.7-3.9-4.2-6.2-5.9l2.5-2H1074
				v-3.4h28v-2.2h4.3V884.7z M1087.3,869.1c-0.6,2.1-1.5,3.9-2.4,5.7c2.4,3.7,6.9,4.1,14.3,4.1c5.5,0,13.1-0.2,18.4-0.7
				c-0.6,0.9-1.1,2.7-1.2,3.8c-4.8,0.2-11.4,0.4-17.1,0.4c-8.4,0-13.1-0.8-16.1-5.1c-2,2.5-4.3,4.6-6.7,6c-0.4-0.9-1.6-2.4-2.3-3.1
				c3.5-1.8,6.5-4.8,8.4-8.6h-3.7c-1.1,0-2.4,0.3-2.8,0.7v0c-0.2-0.9-1-2.6-1.4-3.3c0.6-0.2,1.4-0.5,2.3-1.3
				c0.7-0.6,2.3-2.1,3.7-3.7h-5.6v-3.4h8.6l1-0.4l1.8,1v-2.9h7.4c-0.5-1.1-1.2-2.3-1.9-3.3l3.5-1c1,1.3,2,3.1,2.5,4.3h6.5
				c0.8-1.3,1.8-3,2.3-4.1l4.2,0.7c-0.8,1.3-1.5,2.3-2.3,3.4h7.4v3.1h-13.3c-0.4,0.7-0.7,1.4-1,2h10.7v14h-23v-14h8.3
				c0.2-0.7,0.5-1.3,0.7-2h-11.7l0.2,0.1c-1.6,1.8-4.2,4.5-6.4,6.7h4.4l0.6-0.2L1087.3,869.1z M1080,859.9c-0.6-1.3-1.8-3.3-2.8-4.7
				l3.7-0.8c1.1,1.4,2.3,3.3,2.9,4.6L1080,859.9z M1108.6,865.4h-15.3v1.8h15.3V865.4z M1108.6,869.3h-15.3v1.8h15.3V869.3z
				 M1108.6,873.2h-15.3v1.9h15.3V873.2z"/>
			<path class="st0" d="M1142.3,876.5v16c0,1.9-0.4,3.1-1.6,3.7c-1.3,0.7-3.1,0.8-5.9,0.8c0-1-0.6-2.7-1.2-3.7c1.8,0.1,3.6,0,4.1,0
				c0.6,0,0.8-0.2,0.8-0.8v-15.4l-7.2,1c0,6.3-0.7,14.4-4,19.6c-0.8-0.7-2.4-1.8-3.5-2.2c3-4.7,3.5-11.2,3.5-16.8l-2.9,0.4l-0.6-3.7
				c1.1-0.1,2.3-0.2,3.5-0.4v-15.1h4.3c0.5-1.8,1-4.1,1.3-5.8l4.5,0.8c-0.6,1.7-1.2,3.5-1.8,5h6.7v13.2l2.4-0.3l0.2,3.3
				L1142.3,876.5z M1131.2,874.5c2.3-0.3,4.7-0.6,7.2-0.9v-10.2h-7.2V874.5z M1134.9,887.4c-0.5-1.9-2-4.9-3.1-7.1l2.7-1.1
				c1.2,2.2,2.7,5.1,3.4,6.9L1134.9,887.4z M1134.6,864.9c1,2.1,2.2,4.8,2.7,6.5l-2.8,1.2c-0.5-1.8-1.7-4.5-2.6-6.6L1134.6,864.9z
				 M1163.9,892.7c0.3,0,0.6-0.1,0.7-0.3c0.2-0.1,0.3-0.5,0.4-1.3c0.1-0.8,0.1-2.6,0.2-5c0.8,0.7,2,1.3,3,1.6c0,2.2-0.2,4.9-0.4,6
				c-0.2,1-0.7,1.7-1.3,2.1c-0.6,0.5-1.5,0.7-2.4,0.7h-2.2c-1,0-2-0.3-2.7-0.9c-0.7-0.8-1-1.7-1-5v-17.1h-6.6v6.7
				c0,5.5-0.8,12.6-5.4,17.2c-0.8-0.7-2.5-2-3.5-2.4c4.3-4.2,4.7-10.2,4.7-14.9v-10.4h15v21c0,1.1,0,1.7,0.1,1.9s0.3,0.3,0.6,0.3
				H1163.9z M1166.7,865.1h-22.3v-3.9h9.1c-0.7-1.9-1.6-4.1-2.7-5.9l4-1.1c1.2,2.1,2.5,4.9,3.3,7h8.6V865.1z"/>
		</g>
	</g>
	<path class="st0" d="M1122.5,753.4c-13.4,0-24.3,10.9-24.3,24.3c0,2,0.2,3.9,0.7,5.8c0,0.1,0,0.1,0,0.2c0.7,4.2,1.7,7.7,2.8,10.1
		c2.9,6,15.9,27.4,20.8,35.4c4.9-8,17.9-29.4,20.8-35.4c1.1-2.4,2.1-5.9,2.8-10.1c0,0,0-0.1,0-0.2c0.5-1.9,0.7-3.9,0.7-5.8
		C1146.8,764.3,1135.9,753.4,1122.5,753.4z M1122.5,787.9c-6.1,0-11-4.9-11-11s4.9-11,11-11c6.1,0,11,4.9,11,11
		S1128.6,787.9,1122.5,787.9z"/>
</g>
<g>
	<g>
		<g>
			<path class="st0" d="M113.8,134.7h10.1v3.4h-10.1v4.7c0,2.1-0.4,3.1-2.2,3.8c-1.6,0.6-4.1,0.6-7.8,0.6c-0.2-1.1-0.9-2.7-1.5-3.8
				c2.7,0.1,5.4,0.1,6.2,0c0.7,0,1-0.2,1-0.8v-4.6H93.8c2.2,1.6,4.6,3.7,5.8,5.2l-3.3,2.7c-1.2-1.7-3.9-4.2-6.2-5.9l2.5-2H81.4v-3.4
				h28v-2.2h4.3V134.7z M94.7,119.1c-0.6,2.1-1.5,3.9-2.4,5.7c2.4,3.7,6.9,4.1,14.3,4.1c5.5,0,13.1-0.2,18.4-0.7
				c-0.6,0.9-1.1,2.7-1.2,3.8c-4.8,0.2-11.4,0.4-17.1,0.4c-8.4,0-13.1-0.8-16.1-5.1c-2,2.5-4.3,4.6-6.7,6c-0.4-0.9-1.6-2.4-2.3-3.1
				c3.5-1.8,6.5-4.8,8.4-8.6h-3.7c-1.1,0-2.4,0.3-2.8,0.7v0c-0.2-0.9-1-2.6-1.4-3.3c0.6-0.2,1.4-0.5,2.3-1.3
				c0.7-0.6,2.3-2.1,3.7-3.7h-5.6v-3.4h8.6l1-0.4l1.8,1v-2.9h7.4c-0.5-1.1-1.2-2.3-1.9-3.3l3.5-1c1,1.3,2,3.1,2.5,4.3h6.5
				c0.8-1.3,1.8-3,2.3-4.1l4.2,0.7c-0.8,1.3-1.5,2.3-2.3,3.4h7.4v3.1h-13.3c-0.4,0.7-0.7,1.4-1,2h10.7v14h-23v-14h8.3
				c0.2-0.7,0.5-1.3,0.7-2H94.3l0.2,0.1c-1.6,1.8-4.2,4.5-6.4,6.7h4.4l0.6-0.2L94.7,119.1z M87.4,109.8c-0.6-1.3-1.8-3.3-2.8-4.7
				l3.7-0.8c1.1,1.4,2.3,3.3,2.9,4.6L87.4,109.8z M116,115.4h-15.3v1.8H116V115.4z M116,119.3h-15.3v1.8H116V119.3z M116,123.2
				h-15.3v1.9H116V123.2z"/>
			<path class="st0" d="M149.7,126.4v16c0,1.9-0.4,3.1-1.6,3.7c-1.3,0.7-3.1,0.8-5.9,0.8c0-1-0.6-2.7-1.2-3.7c1.8,0.1,3.6,0,4.1,0
				c0.6,0,0.8-0.2,0.8-0.8V127l-7.2,1c0,6.3-0.7,14.4-4,19.6c-0.8-0.7-2.4-1.8-3.5-2.2c3-4.7,3.5-11.2,3.5-16.8l-2.9,0.4l-0.6-3.7
				c1.1-0.1,2.3-0.2,3.5-0.4v-15.1h4.3c0.5-1.8,1-4.1,1.3-5.8l4.5,0.8c-0.6,1.7-1.2,3.5-1.8,5h6.7v13.2l2.4-0.3l0.2,3.3L149.7,126.4
				z M138.6,124.5c2.3-0.3,4.7-0.6,7.2-0.9v-10.2h-7.2V124.5z M142.3,137.4c-0.5-1.9-2-4.9-3.1-7.1l2.7-1.1c1.2,2.2,2.7,5.1,3.4,6.9
				L142.3,137.4z M142,114.9c1,2.1,2.2,4.8,2.7,6.5l-2.8,1.2c-0.5-1.8-1.7-4.5-2.6-6.6L142,114.9z M171.3,142.7
				c0.3,0,0.6-0.1,0.7-0.3c0.2-0.1,0.3-0.5,0.4-1.3c0.1-0.8,0.1-2.6,0.2-5c0.8,0.7,2,1.3,3,1.6c0,2.2-0.2,4.9-0.4,6
				c-0.2,1-0.7,1.7-1.3,2.1c-0.6,0.5-1.5,0.7-2.4,0.7h-2.2c-1,0-2-0.3-2.7-0.9c-0.7-0.8-1-1.7-1-5v-17.1h-6.6v6.7
				c0,5.5-0.8,12.6-5.4,17.2c-0.8-0.7-2.5-2-3.5-2.4c4.3-4.2,4.7-10.2,4.7-14.9v-10.4h15v21c0,1.1,0,1.7,0.1,1.9
				c0.1,0.2,0.3,0.3,0.6,0.3H171.3z M174.1,115.1h-22.3v-3.9h9.1c-0.7-1.9-1.6-4.1-2.7-5.9l4-1.1c1.2,2.1,2.5,4.9,3.3,7h8.6V115.1z"
				/>
		</g>
	</g>
	<path class="st0" d="M129.9,3.4c-13.4,0-24.3,10.9-24.3,24.3c0,1.9,0.2,3.9,0.7,5.8c0,0.1,0,0.1,0,0.2c0.7,4.2,1.7,7.7,2.8,10.1
		c2.9,6,15.9,27.4,20.8,35.4c4.9-8,17.9-29.4,20.8-35.4c1.1-2.4,2.1-5.9,2.8-10.1c0,0,0-0.1,0-0.2c0.5-1.9,0.7-3.9,0.7-5.8
		C154.2,14.3,143.3,3.4,129.9,3.4z M129.9,37.8c-6.1,0-11-4.9-11-11s4.9-11,11-11c6.1,0,11,4.9,11,11S136,37.8,129.9,37.8z"/>
</g>
</svg>
