<?xml version="1.0" encoding="utf-8"?>
<!-- Generator: Adobe Illustrator 24.1.1, SVG Export Plug-In . SVG Version: 6.00 Build 0)  -->
<svg version="1.1" id="圖層_1" xmlns="http://www.w3.org/2000/svg" xmlns:xlink="http://www.w3.org/1999/xlink" x="0px" y="0px"
	 viewBox="0 0 255.1 150" style="enable-background:new 0 0 255.1 150;" xml:space="preserve">
<style type="text/css">
	.st0{fill:#FFFFFF;}
</style>
<g>
	<g>
		<g>
			<path class="st0" d="M86.1,119.9h-4.2v-10.2H100v-2.5H84v-3.1h36.6v3.1h-16.2v2.5h18.5v10.2h-4.5v-7.3h-14v10.2H100v-10.2H86.1
				V119.9z M117.5,141.5c2.4,0,2.9-0.8,3.2-5.1c0.9,0.7,2.6,1.2,3.7,1.4c-0.6,5.6-1.8,7.1-6.7,7.1h-10.5c-5.9,0-7.5-1.1-7.5-5.4
				v-0.9h-9.4v2.3h-4.3v-16.5h32.5v14.3h-14.6v0.8c0,1.6,0.6,2,3.5,2H117.5z M86.5,120c3-0.4,7.1-1,11.4-1.6L98,121
				c-3.6,0.8-7.2,1.6-10.3,2.2L86.5,120z M89.1,113.1c2.9,0.5,6.7,1.5,8.8,2.3l-1.2,2.5c-2.1-0.8-5.9-1.9-8.9-2.5L89.1,113.1z
				 M90.4,127.4v2.7h9.4v-2.7H90.4z M99.8,135.6v-2.7h-9.4v2.7H99.8z M114.3,127.4h-10.2v2.7h10.2V127.4z M114.3,135.6v-2.7h-10.2
				v2.7H114.3z M116.9,123.3c-2.5-0.9-7.4-2.1-11.1-2.6l0.9-2.5c3.6,0.4,8.5,1.4,11.1,2.3L116.9,123.3z M117,115.2
				c-2.7,1-6.4,1.9-9,2.4l-1.5-2.1c2.6-0.6,6.4-2,8.7-2.7L117,115.2z"/>
			<path class="st0" d="M140,110.2h9.1v3.5h-17.8v-3.5H140c-0.8-1.7-2.3-4.4-3.5-6.3l3.4-1.7c1.4,2,2.9,4.5,3.6,6.2L140,110.2z
				 M147.7,142.8H137v2.1h-3.8V129h14.5V142.8z M147.4,119.9h-14.2v-3.4h14.2V119.9z M133.2,122.7h14.2v3.4h-14.2V122.7z M137,132.5
				v6.7h6.8v-6.7H137z M164.2,120.7v7.2h8.4v17.4h-4.3v-1.6h-12.5v1.7h-4.1v-17.6h8.2v-7.2h-10.2v-4.1h10.2v-7.6
				c-2.9,0.5-5.8,0.8-8.4,1.1c-0.2-1-0.7-2.6-1.2-3.6c7-0.8,15-2.2,19.7-3.9l2.8,3.5c-2.5,0.8-5.5,1.6-8.7,2.2v8.3h10.9v4.1H164.2z
				 M168.4,131.9h-12.5v7.8h12.5V131.9z"/>
		</g>
	</g>
	<g id="XMLID_68594_">
		<path class="st0" d="M164.7,62.6c-0.2,1-0.6,1.9-1.2,2.8c-0.4,0.6-0.7,1-1,1.4l-2.4,2.7c-0.7,0.8-1.5,1.4-2.4,1.9
			c-0.4,0.2-0.8,0.4-1.3,0.7c-2.2,1-4.7,1.4-7.4,1.1C123.7,71,102.2,53,95.5,28.5c-0.4-1.6-0.8-3-1.1-4.5c-1.1-5.6,1-9.8,2.6-11.1
			c0-0.1,0.1-0.1,0.1-0.1l0.1-0.1c0-0.1,0.1-0.1,0.1-0.2c0.2-0.4,0.5-0.7,0.8-1l2.4-2.7c0.2-0.3,0.5-0.5,0.9-0.8
			c1.3-1.1,2.9-1.9,4.7-2.2c0.6-0.1,1.1-0.2,1.6-0.2c2.4,0,4.7,0.9,6.5,2.5l4.1,3.7c1.7,1.6,2.8,3.6,3.1,5.9c0,0.3,0.1,0.5,0.1,0.8
			c0.1,2.6-0.8,5.1-2.5,7l-2.4,2.7c-1.2,1.3-2.7,2.3-4.4,2.8l-0.8,0.2c-0.4,0.1-0.8,0.4-1,0.9c-0.2,0.4-0.2,0.9,0,1.3L111,34
			c5.4,10.8,14.5,19.2,25.8,23.6l0.6,0.3c0.4,0.1,0.8,0.1,1.2-0.1c0.4-0.2,0.7-0.5,0.8-0.9l0.2-0.7c0.4-1.3,1.1-2.4,2-3.4l2.4-2.7
			c1.8-2,4.4-3.2,7.2-3.2c0.6,0,1.3,0.1,2,0.2c1.7,0.3,3.2,1.1,4.5,2.3l4.1,3.7C164.4,55.6,165.5,59.2,164.7,62.6z"/>
	</g>
</g>
</svg>
